HIERARCHY
ROOT Hips
{
	OFFSET -3.958830 18.904000 13.208200
	CHANNELS 6 Xposition Yposition Zposition Zrotation Yrotation Xrotation 
	JOINT LHipJoint
	{
		OFFSET 0.000000 0.000000 0.000000
		CHANNELS 3 Zrotation Yrotation Xrotation
		JOINT LeftUpLeg
		{
			OFFSET 1.800000 -1.400000 0.085000
			CHANNELS 3 Zrotation Yrotation Xrotation
			JOINT LeftLeg
			{
				OFFSET 2.215000 -6.000000 0.000000
				CHANNELS 3 Zrotation Yrotation Xrotation
				JOINT LeftFoot
				{
					OFFSET 2.500000 -6.900000 0.000000
					CHANNELS 3 Zrotation Yrotation Xrotation
					JOINT LeftToeBase
					{
						OFFSET 0.200000 -0.500000 1.950000
						CHANNELS 3 Zrotation Yrotation Xrotation
						End Site
						{
							OFFSET 0.000000 0.000000 0.000000
						}
					}
				}
			}
		}
	}
	JOINT RHipJoint
	{
		OFFSET 0.000000 0.000000 0.000000
		CHANNELS 3 Zrotation Yrotation Xrotation
		JOINT RightUpLeg
		{
			OFFSET -1.800000 -1.400000 0.085000
			CHANNELS 3 Zrotation Yrotation Xrotation
			JOINT RightLeg
			{
				OFFSET -2.215000 -6.000000 0.000000
				CHANNELS 3 Zrotation Yrotation Xrotation
				JOINT RightFoot
				{
					OFFSET -2.500000 -6.900000 0.000000
					CHANNELS 3 Zrotation Yrotation Xrotation
					JOINT RightToeBase
					{
						OFFSET -0.200000 -0.500000 1.950000
						CHANNELS 3 Zrotation Yrotation Xrotation
						End Site
						{
							OFFSET 0.000000 0.000000 0.000000
						}
					}
				}
			}
		}
	}
	JOINT LowerBack
	{
		OFFSET 0.000000 0.000000 0.000000
		CHANNELS 3 Zrotation Yrotation Xrotation
		JOINT Spine
		{
			OFFSET -0.087000 1.940000 -0.288900
			CHANNELS 3 Zrotation Yrotation Xrotation
			JOINT Spine1
			{
				OFFSET 0.000000 1.950000 0.060000
				CHANNELS 3 Zrotation Yrotation Xrotation
				JOINT Neck
				{
					OFFSET 0.000000 0.000000 0.000000
					CHANNELS 3 Zrotation Yrotation Xrotation
					JOINT Neck1
					{
						OFFSET 0.000000 1.600000 0.340000
						CHANNELS 3 Zrotation Yrotation Xrotation
						JOINT Head
						{
							OFFSET 0.000000 1.667000 -0.240000
							CHANNELS 3 Zrotation Yrotation Xrotation
							End Site
							{
								OFFSET 0.000000 0.000000 0.000000
							}
						}
					}
				}
				JOINT LeftShoulder
				{
					OFFSET 0.000000 0.000000 0.000000
					CHANNELS 3 Zrotation Yrotation Xrotation
					JOINT LeftArm
					{
						OFFSET 2.700000 1.550000 -0.730000
						CHANNELS 3 Zrotation Yrotation Xrotation
						JOINT LeftForeArm
						{
							OFFSET 5.450000 0.000000 0.000000
							CHANNELS 3 Zrotation Yrotation Xrotation
							JOINT LeftHand
							{
								OFFSET 3.450000 0.000000 0.000000
								CHANNELS 3 Zrotation Yrotation Xrotation
								JOINT LeftHandIndex1
								{
									OFFSET 0.750000 0.000000 0.000000
									CHANNELS 3 Zrotation Yrotation Xrotation
									End Site
									{
										OFFSET 0.000000 0.000000 0.000000
									}
								}
							}
						}
					}
				}
				JOINT RightShoulder
				{
					OFFSET 0.000000 0.000000 0.000000
					CHANNELS 3 Zrotation Yrotation Xrotation
					JOINT RightArm
					{
						OFFSET -2.700000 1.550000 -0.730000
						CHANNELS 3 Zrotation Yrotation Xrotation
						JOINT RightForeArm
						{
							OFFSET -5.450000 0.000000 0.000000
							CHANNELS 3 Zrotation Yrotation Xrotation
							JOINT RightHand
							{
								OFFSET -3.450000 0.000000 0.000000
								CHANNELS 3 Zrotation Yrotation Xrotation
								JOINT RightHandIndex1
								{
									OFFSET -0.750000 0.000000 0.000000
									CHANNELS 3 Zrotation Yrotation Xrotation
									End Site
									{
										OFFSET 0.000000 0.000000 0.000000
									}
								}
							}
						}
					}
				}
			}
		}
	}
}
MOTION
Frames: 11
Frame Time: 0.016667
1.069150 16.466020 -2.181730 -0.066104 2.461713 -4.169663 -14.995359 12.768224 2.940760 1.204383 -0.088177 -4.154297 -5.905314 4.177839 3.663830 -1.019630 4.538566 3.342925 0.611910 0.694360 0.119580 18.496214 -11.297477 2.669986 -3.292791 0.963071 -9.281991 5.640834 -4.287576 12.898584 0.018062 -4.382158 2.860115 1.022460 1.051120 0.285080 -4.199991 -0.127683 -7.107484 11.716104 -3.251508 13.004750 -6.588762 -0.676507 12.898137 0.764123 -1.542771 -7.465734 -1.599141 3.721569 17.386663 -4.352030 -0.255160 -4.506690 5.314005 -13.075483 -0.649543 32.534508 -16.891549 -11.257980 88.056225 16.066976 8.980658 -5.020206 3.435923 -0.317700 0.942700 -0.602060 0.389720 -6.096676 15.631022 4.146479 -26.345609 15.734572 -14.689394 -108.564601 -16.384130 14.013289 1.983918 -2.650789 -0.447330 0.651020 0.072770 0.029920 
1.061520 16.462160 -2.208580 -0.001372 1.867946 -3.121801 -15.000292 12.770567 2.896246 0.962032 -0.301697 -5.635702 -5.791947 4.176858 4.509884 -1.063303 4.435941 3.363139 0.573130 0.628490 0.116800 18.495684 -11.267887 2.685981 -3.162220 1.065351 -10.177933 5.602409 -4.165789 12.210208 0.043750 -4.246415 2.901513 0.976590 1.036890 0.290450 -4.183876 -0.163957 -7.047750 11.401615 -2.478260 11.818769 -5.651329 -0.691963 12.752868 0.541602 -1.425173 -7.308932 -1.461845 3.734295 17.521864 -4.541470 0.031210 -4.333830 3.921970 -13.173111 -0.523816 33.137110 -16.516482 -10.597969 81.405736 13.615947 6.145173 -5.008467 3.378162 -0.282320 0.932720 -0.595690 0.363130 -4.278527 15.500218 3.888355 -26.597974 16.544660 -14.188804 -104.277800 -12.230773 8.336877 1.931163 -2.582947 -0.459530 0.635710 0.098960 0.006740 
1.053780 16.462710 -2.239540 0.184335 1.050116 -2.484698 -14.994758 12.791968 2.841782 0.453580 -0.578692 -7.158959 -5.201738 4.193186 6.289715 -1.108603 4.310482 3.390101 0.553340 0.577060 0.130510 18.494241 -11.293422 2.707792 -3.172857 1.094976 -10.853068 5.426904 -4.062130 11.743823 0.068034 -4.143705 2.931811 0.939600 1.013160 0.287090 -4.178966 -0.139732 -6.993126 10.992089 -1.597510 11.295822 -4.937428 -0.286529 12.560189 0.406235 -1.265960 -7.098062 -1.204950 3.295655 17.729534 -4.721730 -0.088490 -4.058310 3.304562 -12.805938 -0.661700 33.128897 -17.438402 -9.993110 74.590198 10.601737 3.231097 -4.980709 3.337209 -0.254000 0.914140 -0.594910 0.340020 -3.437638 15.039475 3.699645 -26.007199 16.643563 -13.493821 -98.624819 -7.824284 2.696245 1.904163 -2.537232 -0.467170 0.614670 0.109130 -0.016270 
1.045640 16.468250 -2.276980 0.222515 0.214996 -2.097284 -14.975383 12.795519 2.777943 -0.002265 -0.901403 -8.741433 -4.441867 4.221724 8.613638 -1.151129 4.211524 3.400999 0.561290 0.578380 0.145070 18.506185 -11.347752 2.740631 -2.995123 1.107164 -11.367061 5.139181 -3.935322 11.354184 0.084609 -4.077863 2.942724 0.941870 0.996770 0.294180 -4.213072 -0.028035 -6.935570 10.884521 -0.792174 11.005388 -4.512550 0.290735 12.411740 0.332379 -1.122181 -6.703746 -0.937308 3.012909 17.779529 -4.985640 -0.132100 -3.784960 3.230273 -11.960752 -1.094979 32.338239 -19.621257 -9.414989 68.456451 7.251009 0.632508 -4.968153 3.327599 -0.259550 0.914020 -0.595380 0.330910 -3.254168 14.163513 3.403530 -25.041113 17.130373 -12.629168 -92.156861 -3.540304 -2.039976 1.874757 -2.525336 -0.458930 0.594190 0.107190 -0.025350 
1.037110 16.478780 -2.322340 0.126136 -1.066383 -2.313558 -14.943237 12.824674 2.713764 -0.162377 -1.176949 -10.093640 -3.745871 4.395982 11.715841 -1.151269 4.199258 3.374280 0.578440 0.600830 0.159800 18.522635 -11.421135 2.785860 -2.712432 1.069980 -11.448144 4.847789 -3.855094 11.125905 0.077053 -4.033918 2.954539 0.941040 0.965380 0.295880 -4.264160 0.078494 -6.907180 11.069298 -0.169138 11.501567 -4.142064 0.848543 12.309092 0.150924 -1.193897 -6.339326 -1.050927 3.103739 18.096585 -5.001200 0.089450 -3.866870 3.674888 -10.989507 -1.472031 30.626797 -21.266167 -8.573853 62.610938 3.593627 -1.548298 -4.933796 3.320038 -0.253430 0.895340 -0.573290 0.330920 -3.392611 13.397789 3.076672 -24.223516 18.307205 -11.887584 -85.354227 0.978329 -6.031870 1.859701 -2.493127 -0.438500 0.575200 0.090830 -0.026610 
1.027540 16.490100 -2.360760 0.038242 -2.558762 -2.710883 -14.896038 12.817923 2.657346 -0.132751 -1.442228 -11.335565 -3.327500 4.742665 15.368045 -1.139323 4.335577 3.293542 0.612400 0.644470 0.183300 18.553112 -11.525577 2.827222 -2.571293 1.023283 -11.442427 4.720782 -3.840368 11.105992 0.061834 -4.030595 2.948137 0.961690 0.939750 0.294180 -4.354071 0.298035 -6.882644 11.416484 0.437993 12.095899 -4.028250 1.458309 12.149419 -0.030967 -1.243268 -5.847725 -1.077778 3.216352 18.276313 -4.915960 0.215700 -4.093420 4.107162 -9.783798 -2.037274 28.417221 -23.229076 -7.334050 57.245934 -1.321342 -3.643143 -4.886269 3.310769 -0.247580 0.879160 -0.552860 0.337230 -3.507094 12.455681 2.706306 -22.596728 20.108036 -10.936204 -79.360499 6.054150 -9.610624 1.832588 -2.463270 -0.424210 0.569190 0.067850 -0.026960 
1.021390 16.493860 -2.393290 -0.024576 -3.975491 -2.804243 -14.861871 12.777402 2.634481 -0.132975 -1.821751 -13.101604 -3.038883 5.240533 19.652620 -1.105668 4.631816 3.149746 0.650000 0.702070 0.193910 18.578066 -11.604173 2.852253 -2.474817 1.038439 -11.770226 4.714769 -3.834132 11.170739 0.061814 -4.036914 2.940343 0.998890 0.934690 0.306580 -4.421148 0.521691 -6.854277 11.507675 1.181118 12.269953 -3.556958 2.082287 11.695146 -0.172117 -1.216300 -5.148147 -0.961737 3.305714 18.284855 -5.063450 0.354560 -3.987280 4.683597 -8.130515 -2.849660 25.248384 -26.264546 -5.634687 52.427298 -6.924797 -5.369596 -4.859851 3.327318 -0.273150 0.893010 -0.548900 0.350730 -3.833008 11.073108 2.117562 -20.752655 22.651421 -9.568625 -72.739407 11.097681 -12.122672 1.784617 -2.451458 -0.402980 0.559830 0.049570 -0.019290 
1.015850 16.497520 -2.427970 -0.071097 -5.243599 -3.203782 -14.832345 12.717319 2.648357 -0.048682 -2.192741 -14.591743 -2.875961 5.918543 24.199208 -1.033042 5.116355 2.937137 0.680390 0.743490 0.217530 18.601781 -11.658390 2.874155 -2.606719 0.963029 -11.638078 5.013793 -3.898898 10.912178 0.045827 -4.059203 2.921257 1.022440 0.920250 0.308400 -4.483514 0.717685 -6.872246 11.664412 1.736598 12.978743 -3.310659 2.652547 11.152127 -0.266752 -1.281654 -4.415379 -1.001531 3.481624 18.424578 -5.000790 0.504970 -4.216850 5.459137 -6.353984 -3.677604 21.419081 -29.017326 -3.545104 48.225625 -13.471363 -6.845286 -4.807744 3.330925 -0.277330 0.886290 -0.535340 0.350250 -4.471852 9.636876 1.444589 -18.528119 25.460392 -7.954516 -65.748576 16.442331 -13.802507 1.744307 -2.405237 -0.388740 0.561910 0.038120 -0.018830 
1.012910 16.493450 -2.456460 -0.239228 -6.652627 -2.972825 -14.813996 12.602576 2.704659 0.242741 -2.621813 -16.569933 -3.066980 6.844117 28.768153 -0.930486 5.765755 2.668629 0.687570 0.749270 0.227480 18.627000 -11.654490 2.897433 -2.629668 0.998165 -11.947329 5.645212 -3.964739 10.361562 0.048779 -4.059575 2.913130 1.028590 0.916930 0.318660 -4.536852 0.910606 -6.905363 11.755736 2.269894 12.896617 -2.915831 3.081517 10.266430 -0.281483 -1.403747 -3.681974 -1.151165 3.888142 18.748512 -5.167150 0.981120 -3.912030 6.492536 -4.352538 -4.363553 16.221654 -31.227773 -0.729679 44.734611 -21.007214 -8.116934 -4.763868 3.358677 -0.285710 0.895680 -0.536800 0.346050 -5.516402 7.994693 0.529596 -15.438681 29.229787 -5.617671 -58.034404 22.289385 -14.553740 1.684376 -2.357630 -0.383150 0.548810 0.037650 -0.024550 
1.010860 16.489460 -2.478230 -0.165414 -7.866006 -2.541731 -14.815708 12.474732 2.792354 0.259888 -2.998470 -18.255081 -3.322581 7.769369 32.592462 -0.789072 6.383748 2.418794 0.682100 0.744460 0.233250 18.640276 -11.603210 2.904291 -2.972160 1.046637 -12.321033 6.493880 -4.039892 9.594653 0.051697 -4.044894 2.917235 1.011460 0.899210 0.321620 -4.552856 1.026470 -6.947437 11.441627 2.735577 12.413769 -2.714699 3.346842 9.414583 -0.206191 -1.437967 -3.102921 -1.223786 4.365508 19.419918 -5.186580 1.619350 -3.584150 7.066633 -3.140070 -4.705574 12.085428 -32.244524 1.693533 39.968694 -28.642024 -8.573134 -4.689116 3.393914 -0.293270 0.891150 -0.530250 0.335630 -6.264832 6.934993 -0.426554 -11.701678 32.538360 -2.833567 -49.844192 28.457160 -14.264218 1.625635 -2.290041 -0.366020 0.523760 0.033690 -0.027090 
1.010200 16.484380 -2.495720 -0.328750 -8.877597 -1.959933 -14.819332 12.367020 2.861650 0.484239 -3.239608 -19.578790 -3.686239 8.627988 35.425436 -0.640147 6.900364 2.219526 0.654260 0.706180 0.225860 18.656403 -11.533010 2.910520 -2.941494 1.131326 -12.784279 7.053507 -4.055561 8.968031 0.054567 -3.984470 2.945942 0.961180 0.875020 0.319570 -4.575923 1.081290 -6.981376 11.593034 3.099592 11.439528 -2.817625 3.565056 9.104888 -0.086613 -1.536472 -2.967062 -1.487078 4.378774 20.573437 -5.159650 1.879600 -3.268150 7.639484 -3.222269 -4.445297 8.295224 -32.212149 3.499149 34.154719 -35.893271 -8.280441 -4.572474 3.417995 -0.281300 0.867660 -0.514600 0.324450 -7.145277 6.985490 -1.089946 -7.563979 34.129216 -0.026817 -41.031190 34.876911 -12.867130 1.567839 -2.202031 -0.349610 0.496520 0.033260 -0.026390 
